<mxfile modified="2021-08-07T10:05:36.734Z" host="app.diagrams.net" agent="5.0 (Windows NT 10.0; Win64; x64) AppleWebKit/537.36 (KHTML, like Gecko) Chrome/92.0.4515.107 Safari/537.36" etag="Jvdyb_dBf_bYCFde-tYB" version="14.9.5" type="github">
  <diagram id="Ht1M8jgEwFfnCIfOTk4-" name="Page-1">
    <mxGraphModel dx="1422" dy="800" grid="1" gridSize="10" guides="1" tooltips="1" connect="1" arrows="1" fold="1" page="1" pageScale="1" pageWidth="1169" pageHeight="827" math="0" shadow="0">
      <root>
        <mxCell id="0" />
        <mxCell id="1" parent="0" />
        <mxCell id="OaH4X9WlTGubhCU9rcse-7" value="Data Ingestion" style="swimlane;" vertex="1" parent="1">
          <mxGeometry x="260" y="210" width="380" height="320" as="geometry" />
        </mxCell>
        <mxCell id="OaH4X9WlTGubhCU9rcse-8" style="edgeStyle=orthogonalEdgeStyle;rounded=0;orthogonalLoop=1;jettySize=auto;html=1;entryX=0.5;entryY=0;entryDx=0;entryDy=0;strokeWidth=1.5;" edge="1" parent="OaH4X9WlTGubhCU9rcse-7" source="OaH4X9WlTGubhCU9rcse-2" target="OaH4X9WlTGubhCU9rcse-4">
          <mxGeometry relative="1" as="geometry" />
        </mxCell>
        <mxCell id="OaH4X9WlTGubhCU9rcse-2" value="FTP" style="outlineConnect=0;fontColor=#232F3E;gradientColor=none;fillColor=#232F3E;strokeColor=none;dashed=0;verticalLabelPosition=bottom;verticalAlign=top;align=center;html=1;fontSize=12;fontStyle=0;aspect=fixed;pointerEvents=1;shape=mxgraph.aws4.traditional_server;" vertex="1" parent="OaH4X9WlTGubhCU9rcse-7">
          <mxGeometry x="32.38" y="30" width="45" height="78" as="geometry" />
        </mxCell>
        <mxCell id="OaH4X9WlTGubhCU9rcse-3" value="API" style="outlineConnect=0;fontColor=#232F3E;gradientColor=none;fillColor=#232F3E;strokeColor=none;dashed=0;verticalLabelPosition=bottom;verticalAlign=top;align=center;html=1;fontSize=12;fontStyle=0;aspect=fixed;pointerEvents=1;shape=mxgraph.aws4.internet_alt1;" vertex="1" parent="OaH4X9WlTGubhCU9rcse-7">
          <mxGeometry x="15.879999999999999" y="149" width="78" height="48" as="geometry" />
        </mxCell>
        <mxCell id="OaH4X9WlTGubhCU9rcse-4" value="" style="shape=image;verticalLabelPosition=bottom;labelBackgroundColor=#ffffff;verticalAlign=top;aspect=fixed;imageAspect=0;image=https://nifi.apache.org/assets/images/apache-nifi-logo.svg;" vertex="1" parent="OaH4X9WlTGubhCU9rcse-7">
          <mxGeometry x="162.38" y="151" width="95.24" height="40" as="geometry" />
        </mxCell>
        <mxCell id="OaH4X9WlTGubhCU9rcse-22" style="edgeStyle=orthogonalEdgeStyle;rounded=0;orthogonalLoop=1;jettySize=auto;html=1;strokeWidth=1.5;" edge="1" parent="OaH4X9WlTGubhCU9rcse-7" source="OaH4X9WlTGubhCU9rcse-20">
          <mxGeometry relative="1" as="geometry">
            <mxPoint x="210" y="193" as="targetPoint" />
          </mxGeometry>
        </mxCell>
        <mxCell id="OaH4X9WlTGubhCU9rcse-20" value="SQL Server" style="shape=datastore;whiteSpace=wrap;html=1;" vertex="1" parent="OaH4X9WlTGubhCU9rcse-7">
          <mxGeometry x="25" y="240" width="60" height="60" as="geometry" />
        </mxCell>
        <mxCell id="OaH4X9WlTGubhCU9rcse-15" value="" style="group" vertex="1" connectable="0" parent="1">
          <mxGeometry x="10" y="250" width="200" height="200" as="geometry" />
        </mxCell>
        <mxCell id="OaH4X9WlTGubhCU9rcse-12" value="" style="shape=mxgraph.cisco.buildings.telecommuter_house_pc;html=1;pointerEvents=1;dashed=0;fillColor=#036897;strokeColor=#ffffff;strokeWidth=2;verticalLabelPosition=bottom;verticalAlign=top;align=center;outlineConnect=0;" vertex="1" parent="OaH4X9WlTGubhCU9rcse-15">
          <mxGeometry x="30" y="110" width="70" height="60" as="geometry" />
        </mxCell>
        <mxCell id="OaH4X9WlTGubhCU9rcse-13" value="" style="shape=mxgraph.cisco.buildings.telecommuter_house_pc;html=1;pointerEvents=1;dashed=0;fillColor=#036897;strokeColor=#ffffff;strokeWidth=2;verticalLabelPosition=bottom;verticalAlign=top;align=center;outlineConnect=0;" vertex="1" parent="OaH4X9WlTGubhCU9rcse-15">
          <mxGeometry x="100" y="80" width="70" height="60" as="geometry" />
        </mxCell>
        <mxCell id="OaH4X9WlTGubhCU9rcse-14" value="Data Sources - Medical Facilities" style="swimlane;" vertex="1" parent="OaH4X9WlTGubhCU9rcse-15">
          <mxGeometry width="200" height="200" as="geometry" />
        </mxCell>
        <mxCell id="OaH4X9WlTGubhCU9rcse-10" value="" style="shape=mxgraph.cisco.buildings.telecommuter_house_pc;html=1;pointerEvents=1;dashed=0;fillColor=#036897;strokeColor=#ffffff;strokeWidth=2;verticalLabelPosition=bottom;verticalAlign=top;align=center;outlineConnect=0;" vertex="1" parent="OaH4X9WlTGubhCU9rcse-14">
          <mxGeometry x="40" y="40" width="70" height="60" as="geometry" />
        </mxCell>
        <mxCell id="OaH4X9WlTGubhCU9rcse-17" style="edgeStyle=orthogonalEdgeStyle;rounded=0;orthogonalLoop=1;jettySize=auto;html=1;strokeWidth=1.5;" edge="1" parent="1" source="OaH4X9WlTGubhCU9rcse-14">
          <mxGeometry relative="1" as="geometry">
            <mxPoint x="260" y="350" as="targetPoint" />
          </mxGeometry>
        </mxCell>
        <mxCell id="OaH4X9WlTGubhCU9rcse-21" style="edgeStyle=orthogonalEdgeStyle;rounded=0;orthogonalLoop=1;jettySize=auto;html=1;strokeWidth=1.5;" edge="1" parent="1" source="OaH4X9WlTGubhCU9rcse-3">
          <mxGeometry relative="1" as="geometry">
            <mxPoint x="420" y="383" as="targetPoint" />
          </mxGeometry>
        </mxCell>
      </root>
    </mxGraphModel>
  </diagram>
</mxfile>
